<?xml version="1.0" encoding="UTF-8" standalone="no"?> <svg id="Glyph" xmlns="http://www.w3.org/2000/svg" viewBox="0 0 64 64"><title>1</title><path d="M57,11.53H48.07v-.18c-.197-5.93352-8.80513-5.93167-9,.00009V13.7a4.50593,4.50593,0,0,0,3.67035,4.41321,1.00106,1.00106,0,0,1-.30535,1.9776A6.50533,6.50533,0,0,1,37.07,13.7V11.53H26.93v-.18c-.1897-5.92865-8.808-5.93379-9,.0001V13.7a4.50593,4.50593,0,0,0,3.67035,4.41321,1.00069,1.00069,0,0,1-.3053,1.9776A6.50533,6.50533,0,0,1,15.93,13.7V11.53H7a3.00234,3.00234,0,0,0-3,3V23.1H60V14.53A3.00234,3.00234,0,0,0,57,11.53Zm-32.07,0h-5A2.5037,2.5037,0,1,1,24.93,11.53Zm21.14,0c-1.35464.00363-3.63431.00112-5,0A2.5037,2.5037,0,1,1,46.07,11.53Z"/><path d="M50.92,53.03a.96551.96551,0,0,1-.71.3H4c-.21979,1.97766.89228,3.775,3.00007,3.81H57a3.00237,3.00237,0,0,0,3-3V45.77C59.61269,46.08373,50.92,53.03,50.92,53.03Z"/><path d="M4,51.33H49.21V46.29a2.00587,2.00587,0,0,1,2-2h7.45L60,43.21V25.1H4Z"/><polygon points="51.21 50.25 56.16 46.29 51.21 46.29 51.21 50.25"/></svg>